<?xml version="1.0" encoding="UTF-8" standalone="no"?>
<!-- Created with Inkscape (http://www.inkscape.org/) -->

<svg
   xmlns:dc="http://purl.org/dc/elements/1.1/"
   xmlns:cc="http://creativecommons.org/ns#"
   xmlns:rdf="http://www.w3.org/1999/02/22-rdf-syntax-ns#"
   xmlns:svg="http://www.w3.org/2000/svg"
   xmlns="http://www.w3.org/2000/svg"
   xmlns:sodipodi="http://sodipodi.sourceforge.net/DTD/sodipodi-0.dtd"
   xmlns:inkscape="http://www.inkscape.org/namespaces/inkscape"
   width="100mm"
   height="100mm"
   viewBox="0 0 100 100"
   version="1.1"
   id="svg8"
   inkscape:version="0.92.1 r15371"
   sodipodi:docname="icon.svg">
  <defs
     id="defs2" />
  <sodipodi:namedview
     id="base"
     pagecolor="#ffffff"
     bordercolor="#666666"
     borderopacity="1.0"
     inkscape:pageopacity="0.0"
     inkscape:pageshadow="2"
     inkscape:zoom="0.7"
     inkscape:cx="-118.61518"
     inkscape:cy="23.234622"
     inkscape:document-units="mm"
     inkscape:current-layer="layer1"
     showgrid="false"
     inkscape:showpageshadow="false"
     inkscape:window-width="924"
     inkscape:window-height="428"
     inkscape:window-x="257"
     inkscape:window-y="220"
     inkscape:window-maximized="0" />
  <metadata
     id="metadata5">
    <rdf:RDF>
      <cc:Work
         rdf:about="">
        <dc:format>image/svg+xml</dc:format>
        <dc:type
           rdf:resource="http://purl.org/dc/dcmitype/StillImage" />
        <dc:title></dc:title>
      </cc:Work>
    </rdf:RDF>
  </metadata>
  <g
     inkscape:label="Layer 1"
     inkscape:groupmode="layer"
     id="layer1"
     transform="translate(0,-197)">
    <path
       style="color:#000000;font-style:normal;font-variant:normal;font-weight:normal;font-stretch:normal;font-size:medium;line-height:normal;font-family:sans-serif;font-variant-ligatures:normal;font-variant-position:normal;font-variant-caps:normal;font-variant-numeric:normal;font-variant-alternates:normal;font-feature-settings:normal;text-indent:0;text-align:start;text-decoration:none;text-decoration-line:none;text-decoration-style:solid;text-decoration-color:#000000;letter-spacing:normal;word-spacing:normal;text-transform:none;writing-mode:lr-tb;direction:ltr;text-orientation:mixed;dominant-baseline:auto;baseline-shift:baseline;text-anchor:start;white-space:normal;shape-padding:0;clip-rule:nonzero;display:inline;overflow:visible;visibility:visible;opacity:1;isolation:auto;mix-blend-mode:normal;color-interpolation:sRGB;color-interpolation-filters:linearRGB;solid-color:#000000;solid-opacity:1;vector-effect:none;fill:#ff704a;fill-opacity:1;fill-rule:evenodd;stroke:none;stroke-width:10;stroke-linecap:round;stroke-linejoin:miter;stroke-miterlimit:4;stroke-dasharray:none;stroke-dashoffset:0;stroke-opacity:1;color-rendering:auto;image-rendering:auto;shape-rendering:auto;text-rendering:auto;enable-background:accumulate"
       d="m 50,206.5918 c -8.767374,0 -17.439709,2.9963 -24.701172,8.63672 l -2.058594,-2.0586 a 5.0005,5.0005 0 1 0 -7.070312,7.07031 l 2.058594,2.0586 c -11.2808356,14.52292 -11.2808321,34.87941 0,49.40234 l -2.058594,2.0586 a 5.0005,5.0005 0 1 0 7.070312,7.07031 l 2.058594,-2.0586 c 14.522926,11.28084 34.879417,11.28084 49.402344,0 l 2.058594,2.0586 a 5.0005,5.0005 0 1 0 7.070312,-7.07031 l -2.058594,-2.0586 c 11.280836,-14.52292 11.280832,-34.87941 0,-49.40234 l 2.058594,-2.0586 a 5.0005,5.0005 0 1 0 -7.070312,-7.07031 l -2.058594,2.0586 C 67.439709,209.5881 58.767374,206.5918 50,206.5918 Z m 0,9.9375 c 6.198818,0 12.354179,1.97869 17.634766,5.76562 L 50,239.92969 32.365234,222.29492 C 37.645821,218.50799 43.801182,216.5293 50,216.5293 Z M 25.294922,229.36523 42.929688,247 25.294922,264.63477 c -7.573864,-10.56118 -7.573864,-24.70836 0,-35.26954 z m 49.410156,0 c 7.573864,10.56118 7.573864,24.70836 0,35.26954 L 57.070312,247 Z M 50,254.07031 67.634766,271.70508 c -10.561174,7.57386 -24.708359,7.57386 -35.269532,0 z"
       id="path4491"
       inkscape:connector-curvature="0" />
  </g>
</svg>
